<svg xmlns="http://www.w3.org/2000/svg" width="128" height="128" xml:space="preserve"><path fill="#282D33" d="m124.703 110.223-30.88-8.25c-6.819 2.505-14.04 3.774-21.474 3.774a63.49 63.49 0 0 1-13.189-1.381l.833-3.912a59.46 59.46 0 0 0 12.356 1.293c7.168 0 14.12-1.259 20.663-3.742l.604-.229 25.427 6.794-5.527-20.575.666-.797c6.423-7.687 9.818-16.771 9.818-26.27 0-24.714-23.17-44.82-51.65-44.82-28.482 0-51.654 20.106-51.654 44.82 0 2.854.313 5.716.929 8.504l-3.905.863a43.466 43.466 0 0 1-1.023-9.367c0-26.92 24.966-48.82 55.654-48.82 30.686 0 55.65 21.9 55.65 48.82 0 10.115-3.483 19.783-10.086 28.025l6.788 25.27z"/><path fill="#282D33" d="m.71 119.893 4.082-15.19C1.654 100.187 0 95.022 0 89.706c0-15.854 14.651-28.752 32.66-28.752 18.008 0 32.659 12.898 32.659 28.753 0 15.854-14.651 28.752-32.66 28.752-5.163 0-10.281-1.082-14.851-3.135L.71 119.893zm17.476-8.81.665.316c4.205 2.002 8.979 3.06 13.808 3.06 15.803 0 28.66-11.104 28.66-24.752S48.462 64.954 32.66 64.954C16.857 64.954 4 76.058 4 89.706c0 4.763 1.581 9.397 4.572 13.4l.582.778-2.782 10.356 11.814-3.157zM51.006 30.458h9.269v4h-9.269z"/><path fill="#282D33" d="M17.389 87.775h5.793v4h-5.793zM29.763 87.775h5.793v4h-5.793zM42.139 87.775h5.794v4h-5.794z"/><g><path fill="#282D33" d="M85.141 30.458h9.268v4h-9.268z"/></g><g><path fill="#282D33" d="M73.021 67.736c-10.714 0-19.485-9.425-19.968-21.456l-.083-2.08h40.104l-.084 2.081c-.484 12.032-9.256 21.455-19.969 21.455zM57.234 48.2c1.221 8.863 7.838 15.536 15.787 15.536 7.948 0 14.565-6.673 15.788-15.536H57.234z"/></g></svg>