<svg xmlns="http://www.w3.org/2000/svg" xmlns:xlink="http://www.w3.org/1999/xlink" width="500" zoomAndPan="magnify" viewBox="0 0 375 374.999991" height="500" preserveAspectRatio="xMidYMid meet" version="1.0"><defs><g/><clipPath id="405c67840c"><path d="M 43 164 L 136.800781 164 L 136.800781 246.367188 L 43 246.367188 Z M 43 164 " clip-rule="nonzero"/></clipPath><clipPath id="2f1f3525fe"><path d="M 0 128.171875 L 98 128.171875 L 98 219 L 0 219 Z M 0 128.171875 " clip-rule="nonzero"/></clipPath></defs><g clip-path="url(#405c67840c)"><path fill="#000000" d="M 43.914062 217.421875 C 43.9375 220.257812 43.96875 223.09375 44.015625 225.929688 C 44.015625 226.179688 44.105469 226.398438 44.285156 226.578125 C 44.464844 226.753906 44.679688 226.84375 44.933594 226.84375 C 51.824219 226.757812 58.722656 226.632812 65.617188 226.464844 C 72.484375 226.292969 79.34375 226.082031 86.207031 225.832031 C 90.085938 225.6875 93.96875 225.53125 97.851562 225.359375 C 98.054688 225.355469 98.238281 225.292969 98.402344 225.167969 C 98.566406 225.042969 98.675781 224.882812 98.734375 224.6875 C 99.695312 221.386719 97.585938 217.890625 94.601562 216.46875 C 93.832031 216.082031 93.019531 215.851562 92.160156 215.777344 C 91.304688 215.703125 90.464844 215.789062 89.640625 216.035156 C 88.117188 216.550781 86.882812 217.460938 85.945312 218.769531 C 84.0625 221.296875 83.652344 224.878906 85.171875 227.6875 C 86.128906 229.449219 87.664062 230.800781 89.203125 232.042969 C 90.980469 233.484375 92.777344 234.910156 94.5625 236.34375 L 107.027344 246.34375 C 107.605469 246.808594 108.605469 246.554688 108.589844 245.695312 C 108.503906 240.917969 108.421875 236.140625 108.339844 231.363281 L 107.421875 232.277344 L 120.226562 231.480469 C 122.238281 231.351562 124.273438 231.316406 126.269531 231.0625 C 128.070312 230.835938 129.796875 230.246094 130.957031 228.777344 C 131.9375 227.527344 132.382812 225.984375 132.609375 224.433594 C 132.878906 222.527344 132.933594 220.59375 133.058594 218.675781 L 133.867188 205.886719 L 135.496094 180.230469 L 135.902344 173.835938 L 136.109375 170.59375 C 136.167969 169.65625 136.328125 168.648438 136.109375 167.722656 C 135.585938 165.605469 133.296875 165.675781 131.558594 165.609375 L 125.144531 165.375 L 99.441406 164.429688 L 96.28125 164.3125 C 95.105469 164.269531 95.105469 166.101562 96.28125 166.144531 L 121.179688 167.0625 L 127.402344 167.289062 L 130.457031 167.402344 C 131.429688 167.394531 132.402344 167.433594 133.371094 167.527344 C 133.980469 167.621094 134.320312 167.863281 134.363281 168.503906 C 134.378906 169.441406 134.332031 170.378906 134.222656 171.3125 L 133.824219 177.617188 L 132.25 202.378906 L 131.46875 214.714844 L 131.066406 221.015625 C 130.96875 222.5625 130.914062 224.125 130.492188 225.625 C 130.113281 226.96875 129.386719 228.167969 128.070312 228.761719 C 126.476562 229.476562 124.523438 229.371094 122.816406 229.488281 L 110.46875 230.257812 L 107.414062 230.445312 C 107.160156 230.445312 106.945312 230.535156 106.765625 230.714844 C 106.585938 230.894531 106.496094 231.109375 106.496094 231.363281 C 106.578125 236.140625 106.664062 240.917969 106.746094 245.695312 L 108.3125 245.046875 L 98.097656 236.84375 L 93.058594 232.804688 C 91.53125 231.566406 89.898438 230.386719 88.492188 228.992188 C 87.386719 227.902344 86.480469 226.65625 86.171875 225.132812 C 85.945312 223.863281 86.074219 222.628906 86.550781 221.429688 C 87.417969 219.125 89.730469 217.175781 92.316406 217.628906 C 95.257812 218.148438 97.832031 221.234375 96.96875 224.203125 L 97.851562 223.527344 C 90.960938 223.832031 84.070312 224.089844 77.175781 224.304688 C 70.28125 224.523438 63.417969 224.695312 56.585938 224.828125 C 52.699219 224.902344 48.816406 224.964844 44.933594 225.011719 L 45.847656 225.929688 C 45.800781 223.09375 45.769531 220.257812 45.75 217.421875 C 45.75 216.242188 43.914062 216.238281 43.914062 217.421875 Z M 43.914062 217.421875 " fill-opacity="1" fill-rule="nonzero"/></g><g clip-path="url(#2f1f3525fe)"><path fill="#000000" d="M 39.402344 130.492188 C 35.804688 130.867188 32.320312 131.703125 28.949219 133 C 25.574219 134.296875 22.429688 136.015625 19.511719 138.148438 C 16.542969 140.296875 13.917969 142.804688 11.636719 145.667969 C 9.355469 148.535156 7.5 151.65625 6.074219 155.03125 C 4.949219 157.734375 4.125 160.523438 3.597656 163.398438 C 3.070312 166.277344 2.855469 169.179688 2.949219 172.101562 C 3.042969 175.027344 3.441406 177.90625 4.152344 180.746094 C 4.863281 183.582031 5.863281 186.3125 7.15625 188.9375 C 8.050781 190.789062 8.988281 192.644531 9.378906 194.683594 C 9.648438 196.195312 9.566406 197.6875 9.128906 199.160156 C 8.3125 202.097656 6.5 204.660156 4.835938 207.179688 C 3.097656 209.777344 1.328125 212.492188 0.550781 215.5625 C 0.355469 216.339844 0.226562 217.125 0.167969 217.921875 C 0.167969 218.175781 0.257812 218.390625 0.4375 218.570312 C 0.617188 218.75 0.832031 218.839844 1.085938 218.839844 C 4.796875 218.789062 8.421875 218.191406 11.953125 217.042969 C 15.484375 215.898438 18.769531 214.257812 21.804688 212.117188 C 23.320312 211.054688 24.746094 209.882812 26.082031 208.605469 C 26.695312 208.015625 27.261719 207.4375 27.523438 206.605469 C 27.734375 205.902344 27.722656 205.199219 27.484375 204.503906 C 26.910156 202.882812 25.394531 202.082031 23.726562 202.117188 C 23.292969 202.121094 22.871094 202.179688 22.457031 202.304688 C 22.042969 202.425781 21.652344 202.605469 21.289062 202.839844 C 20.929688 203.074219 20.605469 203.355469 20.324219 203.679688 C 20.039062 204.007812 19.808594 204.367188 19.632812 204.761719 C 19.304688 205.523438 19.128906 206.320312 19.105469 207.152344 C 19.078125 207.984375 19.210938 208.789062 19.496094 209.570312 C 20.109375 211.289062 21.171875 212.660156 22.679688 213.6875 C 24.160156 214.746094 25.917969 215.402344 27.65625 215.902344 C 29.550781 216.4375 31.464844 216.875 33.402344 217.21875 C 41.460938 218.691406 49.777344 218.777344 57.820312 217.160156 C 65.09375 215.730469 71.773438 212.902344 77.863281 208.675781 C 83.652344 204.675781 88.335938 199.644531 91.914062 193.582031 C 93.71875 190.4375 95.109375 187.117188 96.078125 183.621094 C 97.046875 180.125 97.570312 176.566406 97.644531 172.9375 C 97.734375 169.277344 97.378906 165.65625 96.578125 162.085938 C 95.773438 158.511719 94.550781 155.085938 92.902344 151.816406 C 91.292969 148.703125 89.332031 145.832031 87.023438 143.203125 C 84.714844 140.570312 82.121094 138.253906 79.246094 136.253906 C 76.4375 134.277344 73.441406 132.644531 70.257812 131.363281 C 67.074219 130.082031 63.78125 129.179688 60.390625 128.664062 C 58.695312 128.410156 56.992188 128.257812 55.277344 128.203125 C 54.097656 128.171875 54.097656 130.003906 55.277344 130.035156 C 58.515625 130.140625 61.695312 130.617188 64.820312 131.460938 C 67.949219 132.308594 70.933594 133.5 73.78125 135.039062 C 79.5625 138.113281 84.367188 142.304688 88.199219 147.609375 C 90.164062 150.386719 91.761719 153.359375 92.992188 156.53125 C 94.222656 159.703125 95.050781 162.976562 95.46875 166.351562 C 95.910156 169.765625 95.9375 173.179688 95.554688 176.597656 C 95.171875 180.019531 94.386719 183.34375 93.203125 186.574219 C 90.933594 192.683594 87.113281 198.144531 82.402344 202.609375 C 77.625 207.132812 72.160156 210.558594 66.007812 212.898438 C 58.855469 215.613281 51.179688 216.726562 43.542969 216.480469 C 39.679688 216.351562 35.859375 215.886719 32.078125 215.089844 C 28.8125 214.402344 24.980469 213.6875 22.558594 211.195312 C 21.546875 210.148438 21.007812 208.894531 20.9375 207.4375 C 20.894531 206.179688 21.351562 204.722656 22.59375 204.175781 C 23.226562 203.910156 23.875 203.855469 24.542969 204.007812 C 25.066406 204.105469 25.441406 204.394531 25.671875 204.871094 C 25.757812 205.046875 25.8125 205.234375 25.835938 205.433594 C 25.875 205.703125 25.835938 205.960938 25.726562 206.207031 C 25.636719 206.398438 25.519531 206.570312 25.378906 206.722656 C 25.054688 207.066406 24.707031 207.386719 24.359375 207.707031 C 21.8125 210.054688 18.976562 211.984375 15.859375 213.5 C 12.742188 215.011719 9.476562 216.046875 6.054688 216.597656 C 4.40625 216.859375 2.75 216.996094 1.085938 217.007812 L 2 217.921875 C 2.230469 214.933594 3.757812 212.207031 5.359375 209.710938 C 7 207.128906 8.867188 204.648438 10.09375 201.824219 C 10.742188 200.398438 11.148438 198.90625 11.316406 197.351562 C 11.457031 195.484375 11.1875 193.679688 10.503906 191.9375 C 9.789062 190.011719 8.792969 188.214844 7.964844 186.339844 C 7.21875 184.640625 6.609375 182.894531 6.128906 181.105469 C 5.152344 177.457031 4.699219 173.746094 4.777344 169.972656 C 4.851562 166.195312 5.457031 162.507812 6.582031 158.902344 C 7.671875 155.484375 9.214844 152.289062 11.214844 149.308594 C 13.210938 146.332031 15.585938 143.6875 18.332031 141.382812 C 20.988281 139.140625 23.890625 137.277344 27.039062 135.800781 C 30.1875 134.320312 33.472656 133.277344 36.894531 132.667969 C 37.726562 132.523438 38.5625 132.410156 39.402344 132.324219 C 39.652344 132.316406 39.863281 132.222656 40.039062 132.046875 C 40.21875 131.871094 40.308594 131.65625 40.316406 131.410156 C 40.316406 131.15625 40.226562 130.9375 40.050781 130.761719 C 39.871094 130.582031 39.652344 130.492188 39.402344 130.492188 Z M 39.402344 130.492188 " fill-opacity="1" fill-rule="nonzero"/></g><path fill="#000000" d="M 30.75 175.46875 C 31.617188 175.460938 32.363281 175.152344 32.988281 174.550781 C 33.445312 174.097656 33.738281 173.558594 33.863281 172.925781 C 33.988281 172.296875 33.929688 171.6875 33.683594 171.09375 C 33.441406 170.5 33.050781 170.023438 32.515625 169.667969 C 31.980469 169.3125 31.394531 169.132812 30.75 169.136719 C 29.882812 169.144531 29.136719 169.449219 28.511719 170.050781 C 28.058594 170.503906 27.769531 171.042969 27.644531 171.671875 C 27.519531 172.300781 27.582031 172.910156 27.824219 173.503906 C 28.070312 174.09375 28.460938 174.566406 28.992188 174.921875 C 29.523438 175.28125 30.109375 175.457031 30.75 175.457031 Z M 30.75 175.46875 " fill-opacity="1" fill-rule="nonzero"/><path fill="#000000" d="M 50.910156 175.46875 C 51.777344 175.460938 52.523438 175.152344 53.148438 174.550781 C 53.605469 174.097656 53.898438 173.558594 54.023438 172.925781 C 54.148438 172.296875 54.089844 171.6875 53.84375 171.09375 C 53.601562 170.5 53.210938 170.023438 52.675781 169.667969 C 52.140625 169.3125 51.554688 169.132812 50.910156 169.136719 C 50.042969 169.144531 49.296875 169.449219 48.671875 170.050781 C 48.21875 170.503906 47.929688 171.042969 47.804688 171.671875 C 47.679688 172.300781 47.742188 172.910156 47.984375 173.503906 C 48.230469 174.09375 48.621094 174.566406 49.152344 174.921875 C 49.683594 175.28125 50.269531 175.457031 50.910156 175.457031 Z M 50.910156 175.46875 " fill-opacity="1" fill-rule="nonzero"/><path fill="#000000" d="M 71.070312 175.46875 C 71.9375 175.460938 72.683594 175.152344 73.308594 174.550781 C 73.765625 174.097656 74.058594 173.558594 74.183594 172.925781 C 74.308594 172.296875 74.25 171.6875 74.003906 171.09375 C 73.761719 170.5 73.371094 170.023438 72.835938 169.667969 C 72.300781 169.3125 71.714844 169.132812 71.070312 169.136719 C 70.203125 169.144531 69.457031 169.449219 68.832031 170.050781 C 68.378906 170.503906 68.089844 171.042969 67.964844 171.671875 C 67.839844 172.300781 67.902344 172.910156 68.144531 173.503906 C 68.390625 174.09375 68.777344 174.566406 69.3125 174.921875 C 69.84375 175.28125 70.429688 175.457031 71.070312 175.457031 Z M 71.070312 175.46875 " fill-opacity="1" fill-rule="nonzero"/><g fill="#000000" fill-opacity="1"><g transform="translate(167.937285, 220.623688)"><g><path d="M 15.40625 -0.078125 C 15.207031 -0.0234375 15.03125 0 14.875 0 C 14.726562 0 14.582031 0 14.4375 0 L 13.46875 0 C 10.289062 0 7.707031 -0.816406 5.71875 -2.453125 C 3.738281 -4.085938 2.289062 -6.269531 1.375 -9 C 0.457031 -11.726562 0 -14.726562 0 -18 C 0 -21.425781 0.441406 -25 1.328125 -28.71875 C 2.222656 -32.4375 3.46875 -35.984375 5.0625 -39.359375 C 6.75 -42.878906 8.484375 -45.664062 10.265625 -47.71875 C 12.054688 -49.78125 13.84375 -51.242188 15.625 -52.109375 C 17.40625 -52.984375 19.117188 -53.421875 20.765625 -53.421875 C 22.691406 -53.421875 24.382812 -52.960938 25.84375 -52.046875 C 27.3125 -51.128906 28.453125 -49.988281 29.265625 -48.625 C 30.085938 -47.257812 30.425781 -45.929688 30.28125 -44.640625 C 30.1875 -43.742188 29.691406 -43.296875 28.796875 -43.296875 C 28.347656 -43.296875 27.972656 -43.457031 27.671875 -43.78125 C 27.378906 -44.101562 27.257812 -44.488281 27.3125 -44.9375 C 27.40625 -45.6875 27.175781 -46.484375 26.625 -47.328125 C 26.082031 -48.171875 25.300781 -48.898438 24.28125 -49.515625 C 23.269531 -50.140625 22.097656 -50.453125 20.765625 -50.453125 C 19.523438 -50.453125 18.171875 -50.078125 16.703125 -49.328125 C 15.242188 -48.585938 13.742188 -47.320312 12.203125 -45.53125 C 10.660156 -43.75 9.171875 -41.269531 7.734375 -38.09375 C 6.296875 -34.96875 5.140625 -31.644531 4.265625 -28.125 C 3.398438 -24.601562 2.96875 -21.207031 2.96875 -17.9375 C 2.96875 -15.15625 3.328125 -12.632812 4.046875 -10.375 C 4.773438 -8.125 5.921875 -6.328125 7.484375 -4.984375 C 9.046875 -3.640625 11.085938 -2.96875 13.609375 -2.96875 C 15.847656 -2.96875 18.046875 -3.453125 20.203125 -4.421875 C 22.359375 -5.390625 24.390625 -6.679688 26.296875 -8.296875 C 28.210938 -9.910156 29.953125 -11.734375 31.515625 -13.765625 C 33.078125 -15.796875 34.378906 -17.851562 35.421875 -19.9375 C 35.710938 -20.488281 36.15625 -20.765625 36.75 -20.765625 C 37.195312 -20.765625 37.554688 -20.613281 37.828125 -20.3125 C 38.109375 -20.007812 38.25 -19.660156 38.25 -19.265625 C 38.25 -19.222656 38.234375 -19.140625 38.203125 -19.015625 C 38.179688 -18.890625 38.144531 -18.75 38.09375 -18.59375 C 36.40625 -15.175781 34.320312 -12.128906 31.84375 -9.453125 C 29.363281 -6.773438 26.707031 -4.613281 23.875 -2.96875 C 21.050781 -1.332031 18.226562 -0.367188 15.40625 -0.078125 Z M 15.40625 -0.078125 "/></g></g></g><g fill="#000000" fill-opacity="1"><g transform="translate(202.608452, 220.623688)"><g><path d="M 2.828125 -10.640625 C 2.523438 -10.140625 2.101562 -9.890625 1.5625 -9.890625 C 1.164062 -9.890625 0.789062 -10.023438 0.4375 -10.296875 C 0.09375 -10.578125 -0.0507812 -10.960938 0 -11.453125 C 0.195312 -14.773438 0.378906 -18.269531 0.546875 -21.9375 C 0.722656 -25.613281 0.921875 -29.273438 1.140625 -32.921875 C 1.367188 -36.566406 1.628906 -40.039062 1.921875 -43.34375 C 2.222656 -46.644531 2.597656 -49.582031 3.046875 -52.15625 C 3.296875 -53.101562 3.867188 -53.523438 4.765625 -53.421875 C 5.160156 -53.328125 5.476562 -53.101562 5.71875 -52.75 C 5.96875 -52.40625 6.046875 -52.035156 5.953125 -51.640625 C 5.453125 -48.910156 5.050781 -45.707031 4.75 -42.03125 C 4.457031 -38.363281 4.210938 -34.507812 4.015625 -30.46875 C 3.816406 -26.425781 3.617188 -22.445312 3.421875 -18.53125 C 4.210938 -20.164062 5.101562 -21.898438 6.09375 -23.734375 C 7.09375 -25.566406 8.195312 -27.113281 9.40625 -28.375 C 10.625 -29.644531 11.90625 -30.28125 13.25 -30.28125 C 13.738281 -30.28125 14.0625 -30.253906 14.21875 -30.203125 C 15.40625 -29.960938 16.269531 -29.421875 16.8125 -28.578125 C 17.363281 -27.734375 17.773438 -26.703125 18.046875 -25.484375 C 18.316406 -24.265625 18.625 -22.984375 18.96875 -21.640625 C 19.320312 -20.304688 19.894531 -19.019531 20.6875 -17.78125 C 21.476562 -16.539062 22.347656 -15.847656 23.296875 -15.703125 C 24.285156 -15.503906 25.335938 -15.765625 26.453125 -16.484375 C 27.566406 -17.203125 28.691406 -18.179688 29.828125 -19.421875 C 30.972656 -20.660156 32.019531 -21.972656 32.96875 -23.359375 C 33.113281 -23.609375 33.296875 -23.769531 33.515625 -23.84375 C 33.742188 -23.914062 33.984375 -23.953125 34.234375 -23.953125 C 34.578125 -23.953125 34.847656 -23.878906 35.046875 -23.734375 C 35.492188 -23.441406 35.71875 -23.019531 35.71875 -22.46875 C 35.71875 -22.21875 35.640625 -21.972656 35.484375 -21.734375 C 31.472656 -15.679688 27.628906 -12.65625 23.953125 -12.65625 C 22.023438 -12.65625 20.300781 -13.617188 18.78125 -15.546875 C 17.269531 -17.484375 16.09375 -20.460938 15.25 -24.484375 C 14.757812 -26.410156 14.140625 -27.375 13.390625 -27.375 C 12.648438 -27.375 11.820312 -26.765625 10.90625 -25.546875 C 9.988281 -24.335938 9.019531 -22.816406 8 -20.984375 C 6.976562 -19.148438 6.019531 -17.289062 5.125 -15.40625 C 4.238281 -13.519531 3.472656 -11.929688 2.828125 -10.640625 Z M 2.828125 -10.640625 "/></g></g></g><g fill="#000000" fill-opacity="1"><g transform="translate(234.675557, 220.623688)"><g><path d="M 1.859375 -10.421875 C 1.066406 -10.910156 0.507812 -11.585938 0.1875 -12.453125 C -0.132812 -13.328125 -0.296875 -14.332031 -0.296875 -15.46875 C -0.296875 -17.457031 0.0351562 -19.664062 0.703125 -22.09375 C 1.378906 -24.53125 2.015625 -26.835938 2.609375 -29.015625 C 2.703125 -29.410156 2.9375 -29.71875 3.3125 -29.9375 C 3.6875 -30.164062 4.070312 -30.234375 4.46875 -30.140625 C 4.863281 -30.035156 5.160156 -29.796875 5.359375 -29.421875 C 5.554688 -29.054688 5.601562 -28.675781 5.5 -28.28125 C 5.351562 -27.78125 5.117188 -27.007812 4.796875 -25.96875 C 4.472656 -24.925781 4.148438 -23.757812 3.828125 -22.46875 C 3.503906 -21.175781 3.21875 -19.894531 2.96875 -18.625 C 2.726562 -17.363281 2.609375 -16.265625 2.609375 -15.328125 C 2.609375 -14.085938 2.851562 -13.316406 3.34375 -13.015625 C 3.445312 -12.972656 3.546875 -12.9375 3.640625 -12.90625 C 3.742188 -12.882812 3.84375 -12.875 3.9375 -12.875 C 4.6875 -12.875 5.582031 -13.359375 6.625 -14.328125 C 7.664062 -15.296875 8.753906 -16.570312 9.890625 -18.15625 C 11.035156 -19.738281 12.101562 -21.425781 13.09375 -23.21875 C 13.4375 -23.707031 13.910156 -23.953125 14.515625 -23.953125 C 14.609375 -23.953125 14.703125 -23.941406 14.796875 -23.921875 C 14.898438 -23.898438 15.023438 -23.863281 15.171875 -23.8125 C 15.671875 -23.46875 15.921875 -23.019531 15.921875 -22.46875 C 15.921875 -22.414062 15.90625 -22.328125 15.875 -22.203125 C 15.851562 -22.085938 15.820312 -21.953125 15.78125 -21.796875 C 15.175781 -20.710938 14.441406 -19.488281 13.578125 -18.125 C 12.710938 -16.757812 11.742188 -15.441406 10.671875 -14.171875 C 9.609375 -12.910156 8.492188 -11.867188 7.328125 -11.046875 C 6.160156 -10.234375 5.007812 -9.828125 3.875 -9.828125 C 3.226562 -9.828125 2.554688 -10.023438 1.859375 -10.421875 Z M 6.03125 -34.296875 C 5.476562 -34.296875 5.078125 -34.492188 4.828125 -34.890625 C 4.585938 -35.285156 4.515625 -35.707031 4.609375 -36.15625 L 4.90625 -37.28125 L 5.203125 -38.3125 C 5.398438 -39.0625 5.875 -39.4375 6.625 -39.4375 C 7.070312 -39.4375 7.46875 -39.257812 7.8125 -38.90625 C 8.15625 -38.5625 8.253906 -38.117188 8.109375 -37.578125 L 7.4375 -35.34375 C 7.1875 -34.644531 6.71875 -34.296875 6.03125 -34.296875 Z M 6.03125 -34.296875 "/></g></g></g><g fill="#000000" fill-opacity="1"><g transform="translate(247.026228, 220.623688)"><g><path d="M 2.96875 -9.53125 L 2.90625 -9.53125 C 2.507812 -9.53125 2.160156 -9.664062 1.859375 -9.9375 C 1.554688 -10.207031 1.40625 -10.539062 1.40625 -10.9375 C 1.3125 -13.019531 1.238281 -15.039062 1.1875 -17 C 1.132812 -18.957031 1.109375 -20.90625 1.109375 -22.84375 C 1.109375 -31.71875 1.628906 -40.25 2.671875 -48.4375 L -10.421875 -48.0625 C -10.816406 -48.0625 -11.160156 -48.207031 -11.453125 -48.5 C -11.753906 -48.800781 -11.90625 -49.148438 -11.90625 -49.546875 L -11.90625 -49.703125 C -11.90625 -50.597656 -11.429688 -51.046875 -10.484375 -51.046875 L 3.125 -51.484375 C 3.664062 -55.003906 4.257812 -58.425781 4.90625 -61.75 C 5.101562 -62.550781 5.601562 -62.953125 6.40625 -62.953125 C 6.894531 -62.953125 7.273438 -62.765625 7.546875 -62.390625 C 7.828125 -62.015625 7.914062 -61.601562 7.8125 -61.15625 C 7.507812 -59.570312 7.207031 -57.972656 6.90625 -56.359375 C 6.613281 -54.742188 6.34375 -53.117188 6.09375 -51.484375 L 22.984375 -51.9375 C 23.429688 -51.9375 23.800781 -51.785156 24.09375 -51.484375 C 24.394531 -51.191406 24.546875 -50.847656 24.546875 -50.453125 C 24.546875 -50.054688 24.394531 -49.707031 24.09375 -49.40625 C 23.800781 -49.101562 23.457031 -48.953125 23.0625 -48.953125 L 5.734375 -48.515625 C 5.179688 -44.398438 4.769531 -40.21875 4.5 -35.96875 C 4.226562 -31.726562 4.09375 -27.351562 4.09375 -22.84375 C 4.09375 -20.957031 4.113281 -19.035156 4.15625 -17.078125 C 4.207031 -15.117188 4.285156 -13.125 4.390625 -11.09375 C 4.390625 -10.6875 4.253906 -10.320312 3.984375 -10 C 3.710938 -9.6875 3.375 -9.53125 2.96875 -9.53125 Z M 2.96875 -9.53125 "/></g></g></g><g fill="#000000" fill-opacity="1"><g transform="translate(261.013729, 220.623688)"><g><path d="M 15.40625 -0.078125 C 15.207031 -0.0234375 15.03125 0 14.875 0 C 14.726562 0 14.582031 0 14.4375 0 L 13.46875 0 C 10.289062 0 7.707031 -0.816406 5.71875 -2.453125 C 3.738281 -4.085938 2.289062 -6.269531 1.375 -9 C 0.457031 -11.726562 0 -14.726562 0 -18 C 0 -21.425781 0.441406 -25 1.328125 -28.71875 C 2.222656 -32.4375 3.46875 -35.984375 5.0625 -39.359375 C 6.75 -42.878906 8.484375 -45.664062 10.265625 -47.71875 C 12.054688 -49.78125 13.84375 -51.242188 15.625 -52.109375 C 17.40625 -52.984375 19.117188 -53.421875 20.765625 -53.421875 C 22.691406 -53.421875 24.382812 -52.960938 25.84375 -52.046875 C 27.3125 -51.128906 28.453125 -49.988281 29.265625 -48.625 C 30.085938 -47.257812 30.425781 -45.929688 30.28125 -44.640625 C 30.1875 -43.742188 29.691406 -43.296875 28.796875 -43.296875 C 28.347656 -43.296875 27.972656 -43.457031 27.671875 -43.78125 C 27.378906 -44.101562 27.257812 -44.488281 27.3125 -44.9375 C 27.40625 -45.6875 27.175781 -46.484375 26.625 -47.328125 C 26.082031 -48.171875 25.300781 -48.898438 24.28125 -49.515625 C 23.269531 -50.140625 22.097656 -50.453125 20.765625 -50.453125 C 19.523438 -50.453125 18.171875 -50.078125 16.703125 -49.328125 C 15.242188 -48.585938 13.742188 -47.320312 12.203125 -45.53125 C 10.660156 -43.75 9.171875 -41.269531 7.734375 -38.09375 C 6.296875 -34.96875 5.140625 -31.644531 4.265625 -28.125 C 3.398438 -24.601562 2.96875 -21.207031 2.96875 -17.9375 C 2.96875 -15.15625 3.328125 -12.632812 4.046875 -10.375 C 4.773438 -8.125 5.921875 -6.328125 7.484375 -4.984375 C 9.046875 -3.640625 11.085938 -2.96875 13.609375 -2.96875 C 15.847656 -2.96875 18.046875 -3.453125 20.203125 -4.421875 C 22.359375 -5.390625 24.390625 -6.679688 26.296875 -8.296875 C 28.210938 -9.910156 29.953125 -11.734375 31.515625 -13.765625 C 33.078125 -15.796875 34.378906 -17.851562 35.421875 -19.9375 C 35.710938 -20.488281 36.15625 -20.765625 36.75 -20.765625 C 37.195312 -20.765625 37.554688 -20.613281 37.828125 -20.3125 C 38.109375 -20.007812 38.25 -19.660156 38.25 -19.265625 C 38.25 -19.222656 38.234375 -19.140625 38.203125 -19.015625 C 38.179688 -18.890625 38.144531 -18.75 38.09375 -18.59375 C 36.40625 -15.175781 34.320312 -12.128906 31.84375 -9.453125 C 29.363281 -6.773438 26.707031 -4.613281 23.875 -2.96875 C 21.050781 -1.332031 18.226562 -0.367188 15.40625 -0.078125 Z M 15.40625 -0.078125 "/></g></g></g><g fill="#000000" fill-opacity="1"><g transform="translate(295.684896, 220.623688)"><g><path d="M 2.828125 -10.640625 C 2.523438 -10.140625 2.101562 -9.890625 1.5625 -9.890625 C 1.164062 -9.890625 0.789062 -10.023438 0.4375 -10.296875 C 0.09375 -10.578125 -0.0507812 -10.960938 0 -11.453125 C 0.195312 -14.773438 0.378906 -18.269531 0.546875 -21.9375 C 0.722656 -25.613281 0.921875 -29.273438 1.140625 -32.921875 C 1.367188 -36.566406 1.628906 -40.039062 1.921875 -43.34375 C 2.222656 -46.644531 2.597656 -49.582031 3.046875 -52.15625 C 3.296875 -53.101562 3.867188 -53.523438 4.765625 -53.421875 C 5.160156 -53.328125 5.476562 -53.101562 5.71875 -52.75 C 5.96875 -52.40625 6.046875 -52.035156 5.953125 -51.640625 C 5.453125 -48.910156 5.050781 -45.707031 4.75 -42.03125 C 4.457031 -38.363281 4.210938 -34.507812 4.015625 -30.46875 C 3.816406 -26.425781 3.617188 -22.445312 3.421875 -18.53125 C 4.210938 -20.164062 5.101562 -21.898438 6.09375 -23.734375 C 7.09375 -25.566406 8.195312 -27.113281 9.40625 -28.375 C 10.625 -29.644531 11.90625 -30.28125 13.25 -30.28125 C 13.738281 -30.28125 14.0625 -30.253906 14.21875 -30.203125 C 15.40625 -29.960938 16.269531 -29.421875 16.8125 -28.578125 C 17.363281 -27.734375 17.773438 -26.703125 18.046875 -25.484375 C 18.316406 -24.265625 18.625 -22.984375 18.96875 -21.640625 C 19.320312 -20.304688 19.894531 -19.019531 20.6875 -17.78125 C 21.476562 -16.539062 22.347656 -15.847656 23.296875 -15.703125 C 24.285156 -15.503906 25.335938 -15.765625 26.453125 -16.484375 C 27.566406 -17.203125 28.691406 -18.179688 29.828125 -19.421875 C 30.972656 -20.660156 32.019531 -21.972656 32.96875 -23.359375 C 33.113281 -23.609375 33.296875 -23.769531 33.515625 -23.84375 C 33.742188 -23.914062 33.984375 -23.953125 34.234375 -23.953125 C 34.578125 -23.953125 34.847656 -23.878906 35.046875 -23.734375 C 35.492188 -23.441406 35.71875 -23.019531 35.71875 -22.46875 C 35.71875 -22.21875 35.640625 -21.972656 35.484375 -21.734375 C 31.472656 -15.679688 27.628906 -12.65625 23.953125 -12.65625 C 22.023438 -12.65625 20.300781 -13.617188 18.78125 -15.546875 C 17.269531 -17.484375 16.09375 -20.460938 15.25 -24.484375 C 14.757812 -26.410156 14.140625 -27.375 13.390625 -27.375 C 12.648438 -27.375 11.820312 -26.765625 10.90625 -25.546875 C 9.988281 -24.335938 9.019531 -22.816406 8 -20.984375 C 6.976562 -19.148438 6.019531 -17.289062 5.125 -15.40625 C 4.238281 -13.519531 3.472656 -11.929688 2.828125 -10.640625 Z M 2.828125 -10.640625 "/></g></g></g><g fill="#000000" fill-opacity="1"><g transform="translate(327.752001, 220.623688)"><g><path d="M -0.21875 -10.5625 C -1.414062 -11.40625 -2.015625 -12.820312 -2.015625 -14.8125 C -2.015625 -16.289062 -1.648438 -17.921875 -0.921875 -19.703125 C -0.203125 -21.492188 0.820312 -23.195312 2.15625 -24.8125 C 3.5 -26.425781 5.097656 -27.738281 6.953125 -28.75 C 8.816406 -29.769531 10.914062 -30.28125 13.25 -30.28125 C 13.644531 -30.28125 13.988281 -30.128906 14.28125 -29.828125 C 14.582031 -29.535156 14.734375 -29.191406 14.734375 -28.796875 C 14.734375 -28.398438 14.582031 -28.050781 14.28125 -27.75 C 13.988281 -27.457031 13.644531 -27.3125 13.25 -27.3125 C 11.257812 -27.3125 9.492188 -26.847656 7.953125 -25.921875 C 6.421875 -25.003906 5.132812 -23.863281 4.09375 -22.5 C 3.050781 -21.144531 2.253906 -19.769531 1.703125 -18.375 C 1.160156 -16.988281 0.890625 -15.800781 0.890625 -14.8125 C 0.890625 -13.570312 1.285156 -12.953125 2.078125 -12.953125 C 2.578125 -12.953125 3.148438 -13.195312 3.796875 -13.6875 C 4.835938 -14.4375 5.828125 -15.476562 6.765625 -16.8125 C 7.710938 -18.15625 8.59375 -19.570312 9.40625 -21.0625 C 10.226562 -22.550781 10.9375 -23.863281 11.53125 -25 C 11.925781 -25.59375 12.375 -25.890625 12.875 -25.890625 C 13.414062 -25.890625 13.832031 -25.675781 14.125 -25.25 C 14.425781 -24.832031 14.476562 -24.351562 14.28125 -23.8125 C 14.03125 -23.113281 13.816406 -22.378906 13.640625 -21.609375 C 13.472656 -20.847656 13.34375 -20.066406 13.25 -19.265625 C 13.09375 -18.523438 12.988281 -17.859375 12.9375 -17.265625 C 12.894531 -16.671875 12.875 -16.125 12.875 -15.625 C 12.875 -14.632812 12.984375 -13.941406 13.203125 -13.546875 C 13.429688 -13.148438 13.742188 -12.953125 14.140625 -12.953125 C 14.878906 -12.953125 15.796875 -13.472656 16.890625 -14.515625 C 17.984375 -15.554688 19.085938 -16.867188 20.203125 -18.453125 C 21.316406 -20.035156 22.269531 -21.625 23.0625 -23.21875 C 23.363281 -23.707031 23.8125 -23.953125 24.40625 -23.953125 C 24.65625 -23.953125 24.878906 -23.90625 25.078125 -23.8125 C 25.617188 -23.507812 25.890625 -23.0625 25.890625 -22.46875 C 25.890625 -22.414062 25.875 -22.328125 25.84375 -22.203125 C 25.820312 -22.085938 25.789062 -21.953125 25.75 -21.796875 C 23.363281 -17.429688 21.128906 -14.351562 19.046875 -12.5625 C 16.960938 -10.78125 15.175781 -9.890625 13.6875 -9.890625 C 12.394531 -9.890625 11.378906 -10.445312 10.640625 -11.5625 C 9.898438 -12.6875 9.578125 -14.113281 9.671875 -15.84375 C 9.128906 -14.957031 8.421875 -14.050781 7.546875 -13.125 C 6.679688 -12.207031 5.773438 -11.4375 4.828125 -10.8125 C 3.890625 -10.195312 2.953125 -9.890625 2.015625 -9.890625 C 1.210938 -9.890625 0.46875 -10.113281 -0.21875 -10.5625 Z M -0.21875 -10.5625 "/></g></g></g><g fill="#000000" fill-opacity="1"><g transform="translate(349.998086, 220.623688)"><g><path d="M 2.96875 -9.53125 L 2.90625 -9.53125 C 2.507812 -9.53125 2.160156 -9.664062 1.859375 -9.9375 C 1.554688 -10.207031 1.40625 -10.539062 1.40625 -10.9375 C 1.3125 -13.019531 1.238281 -15.039062 1.1875 -17 C 1.132812 -18.957031 1.109375 -20.90625 1.109375 -22.84375 C 1.109375 -31.71875 1.628906 -40.25 2.671875 -48.4375 L -10.421875 -48.0625 C -10.816406 -48.0625 -11.160156 -48.207031 -11.453125 -48.5 C -11.753906 -48.800781 -11.90625 -49.148438 -11.90625 -49.546875 L -11.90625 -49.703125 C -11.90625 -50.597656 -11.429688 -51.046875 -10.484375 -51.046875 L 3.125 -51.484375 C 3.664062 -55.003906 4.257812 -58.425781 4.90625 -61.75 C 5.101562 -62.550781 5.601562 -62.953125 6.40625 -62.953125 C 6.894531 -62.953125 7.273438 -62.765625 7.546875 -62.390625 C 7.828125 -62.015625 7.914062 -61.601562 7.8125 -61.15625 C 7.507812 -59.570312 7.207031 -57.972656 6.90625 -56.359375 C 6.613281 -54.742188 6.34375 -53.117188 6.09375 -51.484375 L 22.984375 -51.9375 C 23.429688 -51.9375 23.800781 -51.785156 24.09375 -51.484375 C 24.394531 -51.191406 24.546875 -50.847656 24.546875 -50.453125 C 24.546875 -50.054688 24.394531 -49.707031 24.09375 -49.40625 C 23.800781 -49.101562 23.457031 -48.953125 23.0625 -48.953125 L 5.734375 -48.515625 C 5.179688 -44.398438 4.769531 -40.21875 4.5 -35.96875 C 4.226562 -31.726562 4.09375 -27.351562 4.09375 -22.84375 C 4.09375 -20.957031 4.113281 -19.035156 4.15625 -17.078125 C 4.207031 -15.117188 4.285156 -13.125 4.390625 -11.09375 C 4.390625 -10.6875 4.253906 -10.320312 3.984375 -10 C 3.710938 -9.6875 3.375 -9.53125 2.96875 -9.53125 Z M 2.96875 -9.53125 "/></g></g></g></svg>